<?xml version="1.0" standalone="no"?>
<!DOCTYPE svg PUBLIC "-//W3C//DTD SVG 20010904//EN"
 "http://www.w3.org/TR/2001/REC-SVG-20010904/DTD/svg10.dtd">
<svg version="1.0" xmlns="http://www.w3.org/2000/svg"
 width="512.000000pt" height="512.000000pt" viewBox="0 0 512.000000 512.000000"
 preserveAspectRatio="xMidYMid meet">
<metadata>
Created by potrace 1.14, written by Peter Selinger 2001-2017
</metadata>
<g transform="translate(0.000000,512.000000) scale(0.100000,-0.100000)"
fill="#000000" stroke="none">
<path d="M618 4559 c-56 -9 -101 -40 -125 -88 -17 -34 -18 -134 -19 -1901 0
-1238 3 -1876 10 -1898 15 -50 68 -99 119 -108 23 -4 46 -7 50 -6 4 1 15 4 25
6 44 8 73 29 99 67 l28 43 3 467 c2 432 4 467 20 472 18 5 382 132 557 194
236 83 450 157 585 203 80 27 183 63 230 80 84 30 426 149 445 154 6 2 17 6
25 9 8 3 35 13 60 21 25 8 104 36 175 61 72 26 135 48 140 49 6 2 17 6 25 9 8
3 83 29 165 57 83 29 175 61 205 72 30 11 62 21 70 23 8 2 60 20 115 40 55 20
107 38 115 40 16 5 261 90 415 145 50 17 113 38 140 47 28 8 64 21 80 28 17 7
55 21 85 30 126 40 177 88 184 172 6 76 -49 157 -119 176 -29 8 -317 107 -340
117 -11 5 -47 18 -80 29 -80 26 -296 101 -315 108 -8 3 -19 7 -25 9 -5 1 -82
28 -170 59 -88 31 -171 60 -185 65 -32 10 -423 147 -475 166 -22 8 -85 30
-140 48 -55 19 -192 67 -305 106 -113 40 -268 94 -345 120 -77 27 -219 76
-315 110 -96 34 -209 73 -250 86 -41 14 -84 29 -95 34 -11 5 -63 23 -115 40
-52 18 -123 43 -157 56 -35 13 -63 21 -63 17 0 -3 -6 -1 -12 4 -7 6 -31 16
-53 22 -22 7 -49 16 -60 21 -27 12 -317 112 -330 114 -5 1 -14 4 -20 7 -5 3
-31 2 -57 -2z"/>
</g>
</svg>
